# xmcd CD database file
# Copyright (C) 1993-1998 Ti Kan
# 
# Track frame offsets:
#     150
#     11005
#     26745
#     40062
#     59495
#     73667
#     85670
#     99392
#     117215
#     133482
# 
# Disc length: 2014 seconds
# 
# Revision: 1
# Processed by: cddbd v1.4b41PL1 Copyright (c) Steve Scherf et al.
# Submitted via: DiscPlay 4.0.4
# 
DISCID=8607dc0a
DTITLE=Asleep At The Wheel - Asleep At The Wheel
DYEAR=1900
DGENRE=
TTITLE0=Cotton-Eyed Joe
TTITLE1=This Is The Way We Make A Broken Heart
TTITLE2=Across The Alley From The Alamo
TTITLE3=Switchin' In The Kitchen
TTITLE4=Deep Water
TTITLE5=Write Your Own Song
TTITLE6=Your Red Wagon
TTITLE7=Baby
TTITLE8=Liar's Moon
TTITLE9=Shorty
EXTD=
EXTT0=
EXTT1=
EXTT2=
EXTT3=
EXTT4=
EXTT5=
EXTT6=
EXTT7=
EXTT8=
EXTT9=
PLAYORDER=
